PathFileType	4	(X/Y/Z)	C:/Users/opensim2020/Desktop/walking_exp_matlab/subject06_walking12_straigt_03.trc	
DataRate	CameraRate	NumFrames	NumMarkers	Units	OrigDataRate	OrigDataStartFrame	OrigNumFrames	
100.00	100.00	4	48	mm	100.00	2210	184	
Frame#	Time	LFHD			RFHD			LBHD			RBHD			C7			T10			CLAV			STRN			RBAK			LSHO			LUPA			LELB			LFRM			LWRA			LWRB			LFIN			RSHO			RUPA			RELB			RFRM			RWRA			RWRB			RFIN			LASI			RASI			LPSI			RPSI			LTHI			LKNE			LTIB			LANK			LHEE			LTOE			RTHI			RKNE			RTIB			RANK			RHEE			RTOE			*39			*40			*41			*42			*43			*44			*45			*46			*47			
		X1	Y1	Z1	X2	Y2	Z2	X3	Y3	Z3	X4	Y4	Z4	X5	Y5	Z5	X6	Y6	Z6	X7	Y7	Z7	X8	Y8	Z8	X9	Y9	Z9	X10	Y10	Z10	X11	Y11	Z11	X12	Y12	Z12	X13	Y13	Z13	X14	Y14	Z14	X15	Y15	Z15	X16	Y16	Z16	X17	Y17	Z17	X18	Y18	Z18	X19	Y19	Z19	X20	Y20	Z20	X21	Y21	Z21	X22	Y22	Z22	X23	Y23	Z23	X24	Y24	Z24	X25	Y25	Z25	X26	Y26	Z26	X27	Y27	Z27	X28	Y28	Z28	X29	Y29	Z29	X30	Y30	Z30	X31	Y31	Z31	X32	Y32	Z32	X33	Y33	Z33	X34	Y34	Z34	X35	Y35	Z35	X36	Y36	Z36	X37	Y37	Z37	X38	Y38	Z38	X39	Y39	Z39	X40	Y40	Z40	X41	Y41	Z41	X42	Y42	Z42	X43	Y43	Z43	X44	Y44	Z44	X45	Y45	Z45	X46	Y46	Z46	X47	Y47	Z47	X48	Y48	Z48	

139	1.380	-1077.46838	572.99866	1645.45117	-947.03204	559.97089	1629.72668	-1093.98828	440.22147	1593.79724	-965.58545	428.36380	1583.00464	-1040.03076	432.22467	1432.21057	-1035.83435	395.35242	1103.13281	-1034.25049	542.81659	1354.53748	-1046.17700	581.57623	1179.20325	-969.79834	356.22787	1260.14490	-1197.13721	495.23080	1392.07153	-1280.84961	537.22211	1200.48413	-1302.37964	570.80121	1094.62988	-1323.20801	684.32123	999.13654	-1274.49402	805.27209	963.29852	-1314.02869	770.48059	916.21399	-1313.04761	857.85400	895.02136	-874.37225	488.67014	1383.41309	-795.33313	412.69348	1194.24463	-786.83331	399.96564	1071.25403	-773.68970	389.48550	950.55402	-811.20966	413.65344	801.56689	-767.95557	364.04379	814.76489	-770.17188	381.34540	731.72247	-1145.46948	570.81250	939.46027	-924.59277	574.11395	948.09399	-1112.55017	410.72647	970.96063	-943.20770	420.56628	970.45642	-1191.77136	461.29007	631.79456	-1167.65002	426.65771	469.93369	-1153.45471	296.97833	243.46600	-1101.10608	231.72195	84.19744	-1055.40820	188.56404	81.81127	-1101.95813	365.96729	32.40141	-858.36768	580.89655	620.11017	-887.09192	625.25336	503.68759	-888.72144	667.76813	246.50502	-928.24829	732.77026	69.46125	-979.61957	709.48651	39.45001	-915.20343	892.07904	69.75358	-1027.63843	468.05399	1683.79407																								 
140	1.390	-1076.67371	582.49152	1644.54077	-946.24554	569.62091	1629.01550	-1092.98071	449.75204	1592.83508	-964.58069	438.03653	1582.25757	-1038.96716	441.83344	1431.18408	-1034.75586	406.14771	1102.01160	-1033.24390	552.73267	1353.76587	-1045.27075	592.06970	1178.52112	-968.95648	366.51816	1258.81238	-1196.17688	504.95154	1391.20386	-1279.75671	546.47827	1199.42566	-1301.04761	579.83051	1093.49121	-1321.85352	693.69092	998.47296	-1273.07922	814.80347	963.41107	-1312.52112	780.28204	916.08862	-1311.62280	867.83813	895.52582	-873.36383	498.56970	1382.42700	-794.32001	423.09912	1193.01685	-785.65021	410.96646	1070.00696	-772.34424	400.63150	949.28552	-809.68976	425.23691	800.34576	-766.64349	375.72104	813.37543	-768.59113	393.24976	730.45624	-1144.57312	581.41223	938.54456	-923.20569	585.39459	947.37244	-1111.28809	421.30188	969.81628	-942.07629	431.84607	969.29999	-1190.87964	470.85947	630.81494	-1167.19641	436.22125	468.92023	-1153.52856	302.11084	244.82829	-1102.01172	233.18370	87.02602	-1056.56372	189.87564	85.53189	-1102.19922	366.24591	32.36033	-858.53156	593.37177	620.21375	-887.10010	637.61639	504.19974	-889.59741	675.67804	244.60547	-930.57153	735.94586	66.33657	-981.44867	711.82660	37.57502	-916.63568	894.54150	63.84568	-1026.76050	477.65720	1682.90271																								 
141	1.400	-1075.99329	592.10266	1643.65173	-945.50726	579.44098	1628.39685	-1091.92224	459.31546	1592.02856	-963.46631	447.80728	1581.62085	-1037.74158	451.51096	1430.18018	-1033.42957	417.07956	1100.92029	-1032.20850	562.71039	1353.08276	-1044.29834	602.66437	1178.02832	-967.95618	376.91638	1257.57996	-1194.99097	514.53778	1390.33069	-1278.63257	555.76666	1198.47791	-1299.82007	588.77234	1092.45007	-1320.36072	702.89856	997.74188	-1271.64392	823.95239	963.09265	-1310.98267	789.57458	915.54993	-1310.23291	877.12103	895.38098	-872.21869	508.51743	1381.57886	-793.18542	433.62076	1191.75977	-784.41449	422.12933	1068.85583	-771.00970	412.21988	948.15558	-808.12708	437.19101	799.22021	-765.08093	387.66916	812.14130	-766.83270	405.51462	729.32593	-1143.78052	592.00549	937.79248	-922.02570	597.20264	946.82837	-1109.85437	432.09222	968.80731	-940.63739	443.42047	968.45624	-1190.05286	480.53394	629.87415	-1166.76721	446.22543	467.84219	-1153.53357	307.73300	246.44836	-1102.80164	234.92400	90.17223	-1057.57129	191.49669	89.72055	-1102.37952	366.53238	32.25512	-858.70612	605.85114	620.21802	-887.24597	650.01788	504.55988	-890.53625	682.97656	242.73987	-932.07855	737.88000	63.83328	-983.61298	713.02527	36.36466	-918.42401	896.37250	57.37849	-1025.94788	487.37759	1682.18652																								 
142	1.410	-1075.37805	601.78058	1642.95105	-944.73621	589.48120	1628.06812	-1090.78296	468.82315	1591.28931	-962.26801	457.69733	1581.28174	-1036.31287	460.92819	1429.30383	-1032.00537	428.33548	1099.91028	-1031.02209	572.66345	1352.60229	-1043.24866	613.39740	1177.75305	-966.71747	387.30716	1256.27551	-1193.69409	524.09009	1389.61328	-1277.15466	564.80426	1197.55090	-1298.46045	597.52203	1091.51221	-1319.31030	711.76794	996.72882	-1270.15613	832.69604	962.21222	-1309.34888	798.30487	914.54675	-1308.83118	885.79834	894.57214	-870.94696	518.50256	1380.86462	-791.86237	444.54901	1190.82813	-783.09534	433.54822	1067.78162	-769.56799	424.05859	947.07275	-806.43768	449.66852	798.27075	-763.49939	400.14227	810.99780	-764.97101	418.22079	728.26892	-1142.99121	601.97437	937.23413	-921.06421	609.36005	946.58374	-1108.25464	442.90250	968.07141	-938.72626	455.12897	968.10657	-1189.09180	490.61255	628.98895	-1166.01648	456.88306	466.70389	-1153.19446	313.30588	248.46149	-1103.59644	236.99847	93.82231	-1058.53674	193.64746	94.51120	-1102.52954	366.92926	32.16270	-858.93048	618.31183	620.28064	-888.17291	662.13049	504.76450	-891.80524	690.17456	241.44518	-933.22076	741.99200	63.39464	-984.33240	716.63226	38.78008	-918.78253	900.53845	49.19223	-1025.13489	497.12952	1681.66333																								 
